<?xml version="1.0" encoding="utf-8"?>
<!-- Generator: Adobe Illustrator 16.0.3, SVG Export Plug-In . SVG Version: 6.00 Build 0)  -->
<!DOCTYPE svg PUBLIC "-//W3C//DTD SVG 1.1//EN" "http://www.w3.org/Graphics/SVG/1.1/DTD/svg11.dtd">
<svg version="1.1" id="Layer_1" xmlns="http://www.w3.org/2000/svg" xmlns:xlink="http://www.w3.org/1999/xlink" x="0px" y="0px"
	 width="31.879px" height="32px" viewBox="0 0 31.879 32" enable-background="new 0 0 31.879 32" xml:space="preserve">
<g>
	<path d="M9.758,29.142c-0.928-0.082-1.861-0.312-2.745-0.61C4.403,27.641,3,25.732,2.708,23.035
		c-0.208-1.919-0.309-3.85-0.425-5.78c-0.116-1.915-0.258-3.83-0.258-5.745c0-1.629,0.194-3.258,0.846-4.786
		c0.736-1.72,2.01-2.88,3.738-3.553c1.384-0.538,2.84-0.714,4.299-0.884c2.799-0.321,5.604-0.438,8.415-0.252
		c2.211,0.145,4.409,0.406,6.453,1.327c1.371,0.62,2.343,1.651,2.826,3.11c0.541,1.623,0.743,3.298,0.881,4.991
		c0.211,2.604,0.268,5.211,0.147,7.82c-0.081,1.745-0.364,3.452-1.059,5.056c-1.089,2.514-2.875,4.255-5.671,4.708
		c-0.974,0.157-1.971,0.211-2.959,0.235c-1.465,0.038-2.933,0.01-4.401,0.01L9.758,29.142z M16.318,27.129
		c2.057-0.092,3.887-0.154,5.717-0.265c1.437-0.084,2.622-0.698,3.525-1.843c1.238-1.572,1.645-3.431,1.764-5.352
		c0.195-3.139,0.098-6.273-0.252-9.399c-0.125-1.129-0.298-2.239-0.94-3.22c-0.169-0.261-0.305-0.547-0.462-0.817
		c-0.409-0.701-0.94-1.327-1.729-1.54c-1.748-0.479-3.55-0.711-5.357-0.708c-2.007,0.003-4.02,0.047-6.017,0.213
		C11.06,4.325,9.56,4.616,8.082,4.943C6.249,5.349,5.176,6.598,4.708,8.377c-0.487,1.855-0.483,3.751-0.37,5.651
		c0.109,1.814,0.254,3.629,0.39,5.444c0.088,1.15,0.147,2.305,0.292,3.449c0.227,1.751,1.157,2.983,2.891,3.483
		c0.826,0.239,1.686,0.45,2.537,0.504C12.475,27.037,14.506,27.065,16.318,27.129z"/>
	<path fill="#FFFFFF" d="M16.318,27.129c-1.812-0.063-3.843-0.092-5.871-0.22c-0.854-0.054-1.711-0.268-2.537-0.504
		c-1.733-0.5-2.664-1.732-2.891-3.483c-0.147-1.142-0.208-2.299-0.292-3.449c-0.139-1.815-0.28-3.627-0.39-5.444
		c-0.113-1.896-0.117-3.792,0.37-5.651c0.469-1.776,1.541-3.028,3.374-3.434c1.479-0.326,2.979-0.619,4.484-0.745
		c1.997-0.169,4.01-0.21,6.017-0.213c1.811-0.003,3.609,0.232,5.357,0.708c0.79,0.216,1.32,0.839,1.729,1.54
		c0.157,0.271,0.293,0.557,0.463,0.817c0.642,0.978,0.814,2.091,0.939,3.22c0.35,3.126,0.447,6.261,0.252,9.399
		c-0.119,1.921-0.525,3.779-1.764,5.352c-0.903,1.145-2.085,1.759-3.525,1.843C20.205,26.972,18.375,27.034,16.318,27.129z
		 M12.553,21.585c0.101,0.179,0.187,0.459,0.372,0.628c0.439,0.409,1.112,0.208,1.381-0.408c0.197-0.459,0.349-0.94,0.489-1.421
		c1.095-3.729,2.183-7.462,3.274-11.195c0.179-0.612-0.098-1.191-0.661-1.365c-0.55-0.169-1.126,0.173-1.298,0.783
		c-0.079,0.277-0.136,0.56-0.215,0.839c-0.975,3.49-1.949,6.982-2.921,10.476C12.831,20.44,12.711,20.966,12.553,21.585z
		 M7.877,14.95c1.355-1.085,2.632-2.113,3.915-3.135c0.428-0.341,0.569-0.749,0.365-1.143c-0.204-0.396-0.686-0.56-1.177-0.355
		c-0.308,0.129-0.615,0.297-0.877,0.504c-1.343,1.072-2.673,2.157-4.003,3.248c-0.333,0.273-0.503,0.664-0.387,1.075
		c0.097,0.353,0.258,0.724,0.494,0.994c1.097,1.268,2.503,2.157,3.886,3.065c0.56,0.368,1.286,0.032,1.449-0.585
		c0.127-0.48-0.056-0.864-0.437-1.153c-0.598-0.456-1.21-0.896-1.805-1.355C8.836,15.749,8.39,15.367,7.877,14.95z M23.604,14.932
		c-0.142,0.122-0.236,0.219-0.346,0.302c-1.284,0.962-2.569,1.921-3.856,2.883c-0.518,0.39-0.653,0.95-0.343,1.409
		c0.324,0.472,0.944,0.572,1.459,0.16c1.614-1.296,3.215-2.606,4.794-3.943c0.628-0.53,0.581-1.173-0.061-1.694
		c-0.711-0.579-1.431-1.145-2.157-1.702c-0.588-0.449-1.191-0.877-1.793-1.311c-0.131-0.095-0.27-0.186-0.414-0.255
		c-0.45-0.208-0.925-0.075-1.161,0.308c-0.227,0.371-0.147,0.85,0.232,1.145c0.507,0.395,1.038,0.749,1.551,1.133
		C22.205,13.875,22.889,14.396,23.604,14.932z"/>
	<path d="M12.553,21.585c0.158-0.623,0.277-1.147,0.422-1.663c0.972-3.49,1.949-6.981,2.921-10.476
		c0.079-0.276,0.136-0.563,0.215-0.839c0.172-0.61,0.748-0.953,1.298-0.783c0.563,0.173,0.84,0.752,0.661,1.365
		c-1.092,3.732-2.18,7.466-3.274,11.195c-0.141,0.48-0.292,0.962-0.489,1.421c-0.265,0.616-0.941,0.814-1.381,0.408
		C12.743,22.044,12.657,21.767,12.553,21.585z"/>
	<path d="M7.877,14.95c0.51,0.417,0.959,0.799,1.422,1.157c0.595,0.459,1.207,0.899,1.805,1.355
		c0.381,0.288,0.566,0.676,0.437,1.153c-0.162,0.617-0.89,0.953-1.449,0.585c-1.383-0.908-2.789-1.798-3.886-3.065
		c-0.236-0.273-0.395-0.643-0.495-0.994c-0.115-0.415,0.055-0.802,0.388-1.075c1.327-1.091,2.66-2.176,4.003-3.248
		c0.262-0.208,0.569-0.375,0.877-0.504c0.491-0.204,0.973-0.04,1.177,0.355c0.204,0.396,0.063,0.802-0.365,1.142
		C10.509,12.837,9.233,13.865,7.877,14.95z"/>
	<path d="M23.604,14.931c-0.715-0.534-1.399-1.056-2.095-1.569c-0.516-0.38-1.047-0.738-1.551-1.132
		c-0.38-0.295-0.459-0.773-0.232-1.145c0.235-0.384,0.711-0.516,1.161-0.309c0.147,0.07,0.283,0.161,0.414,0.256
		c0.602,0.434,1.205,0.861,1.793,1.311c0.727,0.557,1.446,1.122,2.157,1.701c0.642,0.522,0.688,1.164,0.06,1.695
		c-1.578,1.337-3.183,2.647-4.793,3.943c-0.512,0.411-1.135,0.312-1.459-0.161c-0.313-0.459-0.179-1.019,0.343-1.408
		c1.287-0.959,2.572-1.921,3.856-2.884C23.368,15.15,23.465,15.054,23.604,14.931z"/>
</g>
<path fill="#FFFFFF" d="M11.502,22.25c0.5-2.375,4.438-15.625,4.438-15.625l2.875-0.188c0,0,0.125,0.5,0.25,0.938
	S19.19,8.75,19.19,9.063S18.002,14,18.002,14l-1.875,6.75l-0.938,2.375L12.627,24.5l-1.25-1.813L11.502,22.25z"/>
<text transform="matrix(1 0 0 1 13.4155 16.1992)" fill="#020202" font-family="'ColonnaMT'" font-size="23.3632">j</text>
<rect x="14.544" y="4.063" fill="#FFFFFF" width="5.146" height="3.729"/>
</svg>
